<?xml version="1.0" encoding="utf-8"?>
<!-- Generator: Adobe Illustrator 18.0.0, SVG Export Plug-In . SVG Version: 6.00 Build 0)  -->
<!DOCTYPE svg PUBLIC "-//W3C//DTD SVG 1.1//EN" "http://www.w3.org/Graphics/SVG/1.1/DTD/svg11.dtd">
<svg version="1.1" id="Layer_1" xmlns="http://www.w3.org/2000/svg" xmlns:xlink="http://www.w3.org/1999/xlink" x="0px" y="0px"
	 viewBox="400.5 227.5 159 105" enable-background="new 400.5 227.5 159 105" xml:space="preserve">
<g>
	<path fill="#FFA86A" d="M400.5,332.5c0-35,0-70,0-105c53,0,106,0,159,0c0,35,0,70,0,105C506.5,332.5,453.5,332.5,400.5,332.5z
		 M482.5,255.4c-3.6-2.9-7.2-5.8-10.7-8.6c6.1-7.1,14.5-7.7,17.9-1c7.6,15,15,30,22.1,45.2c3.5,7.6-0.2,12.9-8.6,13.2
		c-2.4,0.1-4.9-0.2-7.3-0.4c-2.4-0.2-4.7-0.3-8-0.6c2.4,2.9,4.1,5,6.1,7.5c-7.8,1.9-14.7,2.4-21.5-2.7c2.6-1.6,5-2.7,6.9-4.3
		c1.6-1.5,2.7-3.6,4-5.4c-0.3-0.4-0.7-0.7-1-1.1c-7.2,7.9-14.7,4.1-22.2,0.4c-3.9,7.1-7.6,13.9-11.4,20.9c8.3,3.7,16.3,6.1,25.2,5
		c15.9-1.9,28.7-9.9,40.5-19.9c4.3-3.7,4.9-8.6,2.3-14c-7.3-14.8-14.8-29.5-22.2-44.2c-2.8-5.5-7.3-8.5-13.4-8.3
		c-6.5,0.1-11.5,3.2-14.5,9c-2.1,4.1-2.5,8.2,0.2,12.1c2.8,3.9,7,4,11.3,3.4c1.9-0.3,3.8-0.6,6-1c0,7,0,13.5,0,20.3
		c-4.4-2.4-9-3.4-12.2,0.4c-4.4,5.2-9.2,3.9-14.4,2.4c-1.7-0.5-3.5-0.8-5.2-1.2c-0.2,0.5-0.3,1.1-0.5,1.6c5.3,2.6,10.7,5.3,16.1,7.9
		c1.3-1.6,2.3-2.8,3.3-4c5-5.8,10-5.6,14.3,0.6c1.6,2.3,2.9,4.9,4.8,7.1c4.6,5.5,12.8,5.2,16.4,0c-3.5-3.1-7.5-5.8-10.2-9.4
		c-4.7-6.5-5.9-14.1-4.3-22c1.1-5.2,0.4-9.8-3.8-13.6C486.6,252.2,484.8,253.6,482.5,255.4z"/>
	<path d="M482.5,255.4c2.3-1.8,4-3.2,6-4.8c4.1,3.9,4.8,8.5,3.8,13.6c-1.6,7.9-0.4,15.5,4.3,22c2.6,3.6,6.7,6.3,10.2,9.4
		c-3.6,5.2-11.7,5.5-16.4,0c-1.8-2.2-3.2-4.7-4.8-7.1c-4.4-6.2-9.3-6.5-14.3-0.6c-1,1.2-2,2.4-3.3,4c-5.4-2.7-10.8-5.3-16.1-7.9
		c0.2-0.5,0.3-1.1,0.5-1.6c1.7,0.4,3.5,0.7,5.2,1.2c5.2,1.5,10,2.9,14.4-2.4c3.2-3.8,7.8-2.8,12.2-0.4c0-6.8,0-13.3,0-20.3
		c-2.2,0.4-4.1,0.8-6,1c-4.3,0.6-8.5,0.5-11.3-3.4c-2.8-3.9-2.3-8.1-0.2-12.1c3-5.8,8-8.9,14.5-9c6.1-0.1,10.6,2.9,13.4,8.3
		c7.4,14.7,14.9,29.4,22.2,44.2c2.7,5.4,2,10.4-2.3,14c-11.7,10-24.6,18-40.5,19.9c-8.9,1.1-16.9-1.3-25.2-5
		c3.8-7,7.6-13.8,11.4-20.9c7.6,3.7,15,7.5,22.2-0.4c0.3,0.4,0.7,0.7,1,1.1c-1.3,1.8-2.3,4-4,5.4c-1.9,1.7-4.3,2.7-6.9,4.3
		c6.8,5.1,13.7,4.6,21.5,2.7c-2-2.5-3.7-4.6-6.1-7.5c3.3,0.2,5.7,0.4,8,0.6c2.4,0.1,4.9,0.5,7.3,0.4c8.5-0.3,12.2-5.7,8.6-13.2
		c-7.1-15.2-14.5-30.2-22.1-45.2c-3.4-6.6-11.9-6.1-17.9,1C475.4,249.6,478.9,252.5,482.5,255.4z"/>
</g>
</svg>
