<?xml version="1.0" encoding="utf-8"?>
<!-- Generator: Adobe Illustrator 18.0.0, SVG Export Plug-In . SVG Version: 6.00 Build 0)  -->
<!DOCTYPE svg PUBLIC "-//W3C//DTD SVG 1.1//EN" "http://www.w3.org/Graphics/SVG/1.1/DTD/svg11.dtd">
<svg version="1.1" id="Layer_1" xmlns:sketch="http://www.bohemiancoding.com/sketch/ns"
	 xmlns="http://www.w3.org/2000/svg" xmlns:xlink="http://www.w3.org/1999/xlink" x="0px" y="0px" viewBox="801 455 159 105"
	 enable-background="new 801 455 159 105" xml:space="preserve">
<title>1---Designs</title>
<desc>Created with Sketch.</desc>
<g id="Page-1" sketch:type="MSPage">
	<rect x="801" y="455" fill="#C41230" width="159" height="105"/>
	<g id="brands-homesense" sketch:type="MSLayerGroup">
		<g id="_x31_---Designs" sketch:type="MSShapeGroup">
			<g id="_x31_.0---Home-Screen-Template---Marshalls">
				<g id="Nav_x2F_Marshalls">
					<g id="brands-_x2B_-French">
						<g id="brands">
							<g id="nav-brands">
								<path id="nav-brands-logo-homesense-copy-2" fill="#FFFFFF" d="M923.5,507.1c1.9,1,2.5,1.5,2.5,2.3c0,0.9-0.8,1.5-2,1.5
									c-0.8,0-1.4-0.2-2.3-0.8v-1.2h-0.8v2.8h0.8v-0.6c0.9,0.5,1.7,0.8,2.6,0.8c1.9,0,3.2-1.3,3.2-2.9c0-1.5-0.5-2.2-2.5-3.2
									c-0.5-0.3-1-0.6-1.6-1c-0.8-0.5-1-0.8-1-1.3c0-1,0.7-1.5,1.8-1.5c0.6,0,1,0.1,1.9,0.6v1.1h0.8V501h-0.8v0.6
									c-0.6-0.4-1.3-0.5-2.1-0.5c-1.8,0-3.2,1.3-3.2,2.9C920.8,505.3,921.5,506.1,923.5,507.1L923.5,507.1L923.5,507.1z
									 M906.7,502.8v8h-1.6v0.8h4.5v-0.8h-1.7v-6.6l6.5,7.6h0.6v-9.6h1.7v-0.9h-4.5v0.9h1.7v6.4l-6.3-7.3h-2.9v0.9h1.6
									L906.7,502.8L906.7,502.8L906.7,502.8z M899.9,509.6h-0.8v1.2h-3.8v-3.9h2.9v1.1h0.8v-3.1h-0.8v1.1h-2.9v-3.6h3.7v1.2h0.8
									v-2.5H899v0.5h-7.1v0.8h1.7v8.7h-1.7v0.8h8L899.9,509.6L899.9,509.6L899.9,509.6z M882.8,505.9c2.1,1.1,2.8,1.9,2.8,3
									c0,1.2-1.1,2-2.6,2c-0.8,0-1.4-0.2-2.6-1v-1.5h-0.9v3.4h0.9V511c1,0.6,1.8,0.9,3,0.9c2.2,0,3.8-1.5,3.8-3.5
									c0-1.6-0.7-2.4-3.1-3.8c-2.4-1.3-3-1.9-3-2.9c0-1.2,0.8-2,2.2-2c0.8,0,1.2,0.2,2.2,0.8v1.3h0.9v-3.2h-0.9v0.7
									c-0.6-0.4-1.4-0.5-2.3-0.5c-2.2,0-3.8,1.4-3.8,3.3C879.6,503.7,880.4,504.7,882.8,505.9L882.8,505.9L882.8,505.9z
									 M873.9,509.6h-0.8v1.2h-3.8v-3.9h2.9v1.1h0.8v-3.1h-0.8v1.1h-2.9v-3.6h3.7v1.2h0.8v-2.5H873v0.5h-7.1v0.8h1.7v8.7h-1.7v0.8
									h8L873.9,509.6L873.9,509.6L873.9,509.6z M852.2,510.9h-1.7v-7l3.8,8l4.1-8.4v7.5h-1.7v0.8h5.1V511h-1.7v-8.6h1.7v-0.9h-3.5
									l-3.6,7.6l-3.6-7.6h-3.4v0.9h1.7v8.6h-1.7v0.8h4.5V510.9L852.2,510.9L852.2,510.9z M839.2,512c2.8,0,5.3-2.5,5.3-5.5V506
									c-0.3-2.7-2.6-4.9-5.3-4.9c-2.9,0-5.4,2.5-5.4,5.4C833.8,509.5,836.2,512,839.2,512L839.2,512L839.2,512z M839.1,502
									c1.9,0,3.4,2,3.4,4.4v0.5c-0.2,2.3-1.6,4-3.4,4h-0.4c-1.7-0.2-3.1-2.2-3.1-4.5C835.7,504,837.2,502,839.1,502L839.1,502
									L839.1,502z M822.3,511h-1.5v-5.3h6.9v5.3h-1.4v0.7h4.6V511h-1.5v-11.2h1.5v-0.7h-4.6v0.7h1.4v5.1h-6.9v-5.1h1.4v-0.7h-4.5
									v0.7h1.4V511h-1.4v0.7h4.6V511L822.3,511L822.3,511z M817.6,517.7h121.9v-0.4H817.6V517.7L817.6,517.7L817.6,517.7z
									 M938.7,510.8h-3.8v-3.9h2.9v1.1h0.8v-3.1h-0.8v1.1h-2.9v-3.8h3.7v1.2h0.8v-2.5h-0.8v0.5h-7.1v0.8h1.7v8.7h-1.7v0.8h8v-2.1
									h-0.8V510.8L938.7,510.8L938.7,510.8z"/>
							</g>
						</g>
					</g>
				</g>
			</g>
		</g>
	</g>
</g>
</svg>
