<?xml version="1.0" encoding="utf-8"?>
<!-- Generator: Adobe Illustrator 18.0.0, SVG Export Plug-In . SVG Version: 6.00 Build 0)  -->
<!DOCTYPE svg PUBLIC "-//W3C//DTD SVG 1.1//EN" "http://www.w3.org/Graphics/SVG/1.1/DTD/svg11.dtd">
<svg version="1.1"
	 id="Layer_1" xmlns:rdf="http://www.w3.org/1999/02/22-rdf-syntax-ns#" xmlns:cc="http://creativecommons.org/ns#" xmlns:sodipodi="http://sodipodi.sourceforge.net/DTD/sodipodi-0.dtd" xmlns:svg="http://www.w3.org/2000/svg" xmlns:inkscape="http://www.inkscape.org/namespaces/inkscape" xmlns:dc="http://purl.org/dc/elements/1.1/"
	 xmlns="http://www.w3.org/2000/svg" xmlns:xlink="http://www.w3.org/1999/xlink" x="0px" y="0px" viewBox="400.5 227.5 159 105"
	 enable-background="new 400.5 227.5 159 105" xml:space="preserve">
<rect x="400.5" y="227.5" fill="#646E73" width="159" height="105"/>
<path id="path3" inkscape:connector-curvature="0" fill="#D7DADD" stroke="#002222" stroke-width="0.25" stroke-miterlimit="10" d="
	M538.6,279.4h-9.3c0.1-1.2,0.9-2.4,2.4-2.4h11v-2.3h-11.6c-4.6,0-6.5,3.5-6.5,6.9h12.9c0.5,0,1.4,0.1,1.4,1.2c0,1.1-0.9,1.2-2.4,1.2
	h-13.4v-9.2h-4v9.2h-7.5c-2.3,0-2.5-1.7-2.5-2.5v-6.6h-7.2l-5.9,3.9l-5.3-3.9h-15.4c-4.6,0-7.3,3.2-7.8,6h3.2
	c-1.3,0.8-2.2,2-2.6,3.3h-9c-2.3,0-2.5-1.7-2.5-2.5V275h-4v6.2c0,4.3,3.1,5.2,4.5,5.2h31.6l5.9-4l5.3,4h6.2l-8.3-6.2l6.8-4.6v6.1
	c0,3.9,3.8,4.6,4.9,4.6h28.9c1.4,0,5.3-0.2,5.3-3.4C543.9,279.9,541,279.4,538.6,279.4 M488.1,284h-14.9c0.1-1.2,1.4-2.4,2.9-2.4
	h8.8v-2.3h-12c0.1-1.2,1.4-2.4,2.9-2.4h10.1v-1.3l7,5.2L488.1,284z"/>
<path id="path13" inkscape:connector-curvature="0" fill="#D7DADD" stroke="#002222" stroke-width="0.25" stroke-miterlimit="10" d="
	M431.9,291.4c5.2,0,9.8-1.8,12.7-4.6H442c-2.4,2.1-6,3.4-10.1,3.4c-7.5,0-13.4-4.5-13.4-10.1c0-6.3,5.9-10.1,13.4-10.1
	c0.5,0,0.9,0.2,0.5,0.6c-1.5,1.9-6,8-6.8,9.2c-1.6,2.6-1.5,5.8,2.4,6h16.5c0.8,0,1.1-0.4,1.4-0.8c1.1-1.4,1.6-3.3,1.6-5.1
	c0-4.7-3.4-8.3-8.2-10.1l-0.7,1.2c4.1,1.5,6.8,4.5,6.8,9c0,0.7-0.1,1.5-0.4,2.2c-0.2,0.6-0.5,1.2-1.2,1.2h-13.1
	c-1.7,0-1-1.7-0.5-2.6c0.9-1.6,5.9-8.4,7.1-9.7c0.3-0.5,1.2-1.4,0-1.8c-1.7-0.4-3.5-0.6-5.3-0.6c-8.7,0-15.7,4.4-15.7,11.3
	C416.2,286.9,423.2,291.4,431.9,291.4"/>
</svg>
