<?xml version="1.0" encoding="utf-8"?>
<!-- Generator: Adobe Illustrator 18.0.0, SVG Export Plug-In . SVG Version: 6.00 Build 0)  -->
<!DOCTYPE svg PUBLIC "-//W3C//DTD SVG 1.1//EN" "http://www.w3.org/Graphics/SVG/1.1/DTD/svg11.dtd">
<svg version="1.1" id="Layer_1" xmlns="http://www.w3.org/2000/svg" xmlns:xlink="http://www.w3.org/1999/xlink" x="0px" y="0px"
	 viewBox="0 0 159 105" enable-background="new 0 0 159 105" xml:space="preserve">
<g>
	<path d="M0,105C0,70,0,35,0,0c53,0,106,0,159,0c0,35,0,70,0,105C106,105,53,105,0,105z M89.3,94.6V43.8h19v-4.5H83.6v55.3H89.3z
		 M66,60.4V9.9h-5.5v55.3h19.2c0-3,0-2.8,0-4.8L66,60.4z M92.3,65.3h7.5v-4.8h-7.5V65.3z"/>
	<path fill="#FFFFFF" d="M89.3,94.6c-2.4,0-3.9,0-5.8,0c0-18.4,0-36.6,0-55.3c8.1,0,16.3,0,24.7,0c0,1.4,0,2.8,0,4.5
		c-6.2,0-12.3,0-19,0C89.3,60.8,89.3,77.4,89.3,94.6z"/>
	<path fill="#FFFFFF" d="M60.5,65.2c0-18.5,0-36.7,0-55.3c1.8,0,3.5,0,5.5,0c0,16.7,0,33.3,0,50.5c4.9,0,9.2,0,13.7,0"/>
</g>
</svg>
