<?xml version="1.0" encoding="utf-8"?>
<!-- Generator: Adobe Illustrator 18.0.0, SVG Export Plug-In . SVG Version: 6.00 Build 0)  -->
<!DOCTYPE svg PUBLIC "-//W3C//DTD SVG 1.1//EN" "http://www.w3.org/Graphics/SVG/1.1/DTD/svg11.dtd">
<svg version="1.1" id="Layer_1" xmlns:sketch="http://www.bohemiancoding.com/sketch/ns"
	 xmlns="http://www.w3.org/2000/svg" xmlns:xlink="http://www.w3.org/1999/xlink" x="0px" y="0px" viewBox="187.3 233.5 159 105"
	 enable-background="new 187.3 233.5 159 105" xml:space="preserve">
<rect x="187.3" y="233.5" fill="#074480" width="159" height="105"/>
<g id="_x31_---Designs" sketch:type="MSPage">
	
		<g id="_x31_.0---Home-Screen-Template---Homesense" transform="translate(-180.000000, -95.000000)" sketch:type="MSArtboardGroup">
		<g id="Nav_x2F_Homesense" transform="translate(0.000000, -1.000000)" sketch:type="MSLayerGroup">
			<g id="brands-_x2B_-French" transform="translate(0.000000, 79.000000)" sketch:type="MSShapeGroup">
				<g id="brands" transform="translate(0.000000, 0.000000)">
					<g id="nav-brands" transform="translate(40.000000, 16.000000)">
						<path id="nav-brands-logo-marshalls" fill="#FFFFFF" d="M386.9,291.5c0.7-0.4,1.5-0.7,2.2-1v2.4c0,0,0.1,2.8-1.9,2.8
							c0,0-1.6,0-1.6-1.9C385.7,293.8,385.4,292.2,386.9,291.5z M393.1,297.2v-8.7c0,0,0.1-3.3-3-4.3c-2.5-0.9-5.4-0.1-7.3,1.3
							l0.2,1.7c1.3-1,3.3-1.8,5-1.1c0.7,0.4,1.2,0.9,1.2,1.8c-0.1,0.6-0.4,1-0.9,1.4c-0.1,0.1-2,0.6-2,0.6s-4.7,0.9-4.7,3.8
							c0,2.9,2.3,3.7,4.1,3.7c0,0,2,0.1,3.5-1.4v1.1H393.1z M366.4,276.5l-12.5,20.8h2.2l9-14.8l0.5,14.8h1.3l9.1-14.8v14.7h4.3
							v-20.7H377c-2.6,3.9-7.8,12.2-7.8,12.2v-12.2H366.4z M425.5,297.3v-9.2c0-1.8-0.5-3.3-3-4.2c-1.9-0.5-3.7,0.4-4.9,1.3v-8.8
							h-4.1v20.8h4v-8.7c0,0-0.3-2.4,2-2.4s2,2.4,2,2.4v8.7H425.5L425.5,297.3z M398.7,286.3v-2.1h-4v13.1h4v-5c0,0-0.4-6.1,4.3-6.1
							V284C403,284.1,401,283.6,398.7,286.3z M443.8,297.3v-21h-4v21H443.8z M449.4,297.3v-21h-4v21H449.4z M407.7,285.2
							c1.9,0,3.7,1.1,3.7,1.1l0.2-1.5c0,0-1.5-1-3.7-1c-2.3,0-4.6,1.4-4.6,3.9c0,0-0.2,2.3,1.8,3.5l1.9,1c0,0,2.2,1,2.2,2.4
							c0,1.3-1.7,1.4-2,1.4c-0.3,0-1.8,0-3.8-1.1l-0.2,1.6c0,0,1.8,1,4.4,1c0,0,4.6,0,4.6-4.2c0-2.9-2.3-3.9-2.3-3.9l-2.4-1.1
							c-1.7-0.7-1.5-1.8-1.5-1.8S405.8,285.2,407.7,285.2z M453.5,286.5c0,0-0.2,1.1,1.5,1.8l2.4,1.1c0,0,2.3,1,2.3,3.9
							c0,4.2-4.6,4.2-4.6,4.2c-2.7,0-4.4-1-4.4-1l0.2-1.7c2,1.1,3.5,1.1,3.8,1.1c0.3,0,2-0.1,2-1.4c0-1.3-2.2-2.4-2.2-2.4l-1.9-1
							c-2.1-1.2-1.8-3.5-1.8-3.5c0-2.5,2.3-3.9,4.6-3.9s3.7,1,3.7,1l-0.2,1.5c0,0-1.8-1.1-3.7-1.1
							C453.4,285.2,453.5,286.5,453.5,286.5z M431.8,291.5c0.7-0.4,1.5-0.7,2.2-1v2.4c0,0,0.1,2.8-1.9,2.8c0,0-1.6,0-1.6-1.9
							C430.6,293.8,430.4,292.2,431.8,291.5z M438,297.2v-8.7c0,0,0.1-3.3-3-4.3c-2.5-0.9-5.4-0.1-7.3,1.3l0.2,1.7
							c1.3-1,3.3-1.8,5-1.1c0.7,0.4,1.2,0.9,1.2,1.8c-0.1,0.6-0.4,1-0.9,1.4c-0.3,0.3-2,0.6-2,0.6s-4.7,0.9-4.7,3.9
							c0,2.9,2.3,3.7,4.1,3.7c0,0,2,0.1,3.5-1.4v1.1h4V297.2z"/>
					</g>
				</g>
			</g>
		</g>
	</g>
</g>
</svg>
