<?xml version="1.0" encoding="utf-8"?>
<!-- Generator: Adobe Illustrator 18.0.0, SVG Export Plug-In . SVG Version: 6.00 Build 0)  -->
<!DOCTYPE svg PUBLIC "-//W3C//DTD SVG 1.1//EN" "http://www.w3.org/Graphics/SVG/1.1/DTD/svg11.dtd">
<svg version="1.1"
	 id="Layer_1" sodipodi:docname="scion_svg.svg" sodipodi:docbase="C:\Documents and Settings\Compaq_Owner\My Documents" sodipodi:version="0.32" inkscape:version="0.44.1" xmlns:rdf="http://www.w3.org/1999/02/22-rdf-syntax-ns#" xmlns:cc="http://web.resource.org/cc/" xmlns:sodipodi="http://sodipodi.sourceforge.net/DTD/sodipodi-0.dtd" xmlns:svg="http://www.w3.org/2000/svg" xmlns:inkscape="http://www.inkscape.org/namespaces/inkscape" xmlns:dc="http://purl.org/dc/elements/1.1/"
	 xmlns="http://www.w3.org/2000/svg" xmlns:xlink="http://www.w3.org/1999/xlink" x="0px" y="0px" viewBox="399.4 225.1 159 105"
	 enable-background="new 399.4 225.1 159 105" xml:space="preserve">
<rect x="399.5" y="225.1" fill="#F1F1F1" width="159" height="105"/>
<g id="g2235">
	
		<linearGradient id="path2242_1_" gradientUnits="userSpaceOnUse" x1="-286.3223" y1="604.1809" x2="-286.3223" y2="593.1587" gradientTransform="matrix(5.3333 0 0 5.3333 2006 -2915.3333)">
		<stop  offset="0" style="stop-color:#717279"/>
		<stop  offset="1" style="stop-color:#EEEDEC"/>
	</linearGradient>
	<path id="path2242" fill="url(#path2242_1_)" d="M478.9,248.2c-23.5,0-42.6,13.1-42.6,29.4c0,16.2,19.1,29.4,42.6,29.4
		c11.3,0,22-3,30.1-8.6s12.5-13,12.5-20.8C521.6,261.4,502.5,248.2,478.9,248.2z M478.9,302.5c-19,0-34.5-11.2-34.5-24.9
		c0-13.7,15.4-24.9,34.5-24.9c19,0,34.5,11.2,34.5,24.9C513.4,291.3,498,302.5,478.9,302.5z"/>
	
		<linearGradient id="path2249_1_" gradientUnits="userSpaceOnUse" x1="-286.3223" y1="604.1323" x2="-286.3223" y2="593.2073" gradientTransform="matrix(5.3333 0 0 5.3333 2006 -2915.3333)">
		<stop  offset="0.45" style="stop-color:#717279"/>
		<stop  offset="0.55" style="stop-color:#EEEDEC"/>
	</linearGradient>
	<path id="path2249" fill="url(#path2249_1_)" d="M478.9,248.4c-23.4,0-42.4,13.1-42.4,29.1c0,16.1,18.9,29.1,42.4,29.1
		s42.4-13.1,42.4-29.1C521.3,261.5,502.4,248.4,478.9,248.4z M478.9,302.5c-19,0-34.5-11.2-34.5-24.9c0-13.7,15.4-24.9,34.5-24.9
		c19,0,34.5,11.2,34.5,24.9C513.4,291.3,498,302.5,478.9,302.5z"/>
	
		<linearGradient id="path2256_1_" gradientUnits="userSpaceOnUse" x1="-286.3223" y1="593.6935" x2="-286.3223" y2="603.6608" gradientTransform="matrix(5.3333 0 0 5.3333 2006 -2915.3333)">
		<stop  offset="0.45" style="stop-color:#717279"/>
		<stop  offset="0.55" style="stop-color:#EEEDEC"/>
	</linearGradient>
	<path id="path2256" fill="url(#path2256_1_)" d="M478.9,251c-20.2,0-36.7,11.9-36.7,26.5c0,14.7,16.4,26.5,36.7,26.5
		s36.7-11.9,36.7-26.5C515.6,262.9,499.2,251,478.9,251z M478.9,302.5c-19,0-34.5-11.2-34.5-24.9c0-13.7,15.4-24.9,34.5-24.9
		c19,0,34.5,11.2,34.5,24.9C513.4,291.3,498,302.5,478.9,302.5z"/>
	
		<linearGradient id="path2263_1_" gradientUnits="userSpaceOnUse" x1="-286.3223" y1="593.5963" x2="-286.3223" y2="603.7432" gradientTransform="matrix(5.3333 0 0 5.3333 2006 -2915.3333)">
		<stop  offset="0" style="stop-color:#717279"/>
		<stop  offset="1" style="stop-color:#EEEDEC"/>
	</linearGradient>
	<path id="path2263" fill="url(#path2263_1_)" d="M478.9,250.5c-20.5,0-37.1,12.1-37.1,27.1c0,14.9,16.7,27.1,37.1,27.1
		c20.5,0,37.1-12.1,37.1-27.1C516,262.7,499.4,250.5,478.9,250.5z M478.9,304.1c-20.2,0-36.7-11.9-36.7-26.5
		c0-14.7,16.4-26.5,36.7-26.5s36.7,11.9,36.7,26.5C515.6,292.3,499.2,304.1,478.9,304.1z"/>
	
		<linearGradient id="path2270_1_" gradientUnits="userSpaceOnUse" x1="-286.3304" y1="599.5507" x2="-286.3304" y2="597.7888" gradientTransform="matrix(5.3333 0 0 5.3333 2006 -2915.3333)">
		<stop  offset="0" style="stop-color:#717279"/>
		<stop  offset="1" style="stop-color:#EEEDEC"/>
	</linearGradient>
	<path id="path2270" fill="url(#path2270_1_)" d="M515,272.9h-72.2c-0.3,1.6-0.6,3.1-0.6,4.7c0,1.6,0.2,3.2,0.6,4.7H515
		c0.3-1.6,0.6-3.1,0.6-4.7C515.6,275.9,515.4,274.4,515,272.9z"/>
	<path id="path2272" fill="#58585E" d="M512.7,272.3h-67.3c0,0-2.3,0.3-2.4,0.6h2.2h67.7h2.2C515,272.6,512.7,272.3,512.7,272.3z"/>
	<g id="g2274">
		<g id="g2276">
			<g id="g2278">
				<path id="path2280" fill="#3A3B3E" d="M445.1,282.2h-2.2c0.1,0.2,2.4,0.6,2.4,0.6h67.3c0,0,2.3-0.3,2.4-0.6h-2.2H445.1z"/>
			</g>
			<g id="g2282">
				<path id="path2284" fill="#3A3B3E" d="M515,282.2L515,282.2L515,282.2L515,282.2z"/>
			</g>
			<g id="g2286">
				<path id="path2288" fill="#3A3B3E" d="M442.9,282.2L442.9,282.2L442.9,282.2L442.9,282.2z"/>
			</g>
		</g>
	</g>
	
		<linearGradient id="path2295_1_" gradientUnits="userSpaceOnUse" x1="-287.4056" y1="595.2024" x2="-286.9244" y2="596.3912" gradientTransform="matrix(5.3333 0 0 5.3333 2006 -2915.3333)">
		<stop  offset="5.600000e-03" style="stop-color:#BFBFBB"/>
		<stop  offset="1" style="stop-color:#F6F6F4"/>
	</linearGradient>
	<path id="path2295" fill="url(#path2295_1_)" d="M480,251.5c0,0-9.4,9.7-11.2,21.4h8.2C474.3,263.7,480,251.5,480,251.5z"/>
	
		<linearGradient id="path2304_1_" gradientUnits="userSpaceOnUse" x1="-287.1227" y1="594.7845" x2="-285.1414" y2="597.5301" gradientTransform="matrix(5.3333 0 0 5.3333 2006 -2915.3333)">
		<stop  offset="5.600000e-03" style="stop-color:#67676F"/>
		<stop  offset="0.5" style="stop-color:#BBBCB8"/>
		<stop  offset="1" style="stop-color:#959796"/>
	</linearGradient>
	<path id="path2304" fill="url(#path2304_1_)" d="M477.1,272.9h6.7c-7.6-4.1-3.9-21.4-3.9-21.4S474.3,263.7,477.1,272.9z"/>
	
		<linearGradient id="path2311_1_" gradientUnits="userSpaceOnUse" x1="79.484" y1="459.3335" x2="79.9652" y2="460.5223" gradientTransform="matrix(-5.3333 0 0 -5.3333 908.6405 2745.8438)">
		<stop  offset="5.600000e-03" style="stop-color:#BFBFBB"/>
		<stop  offset="1" style="stop-color:#F6F6F4"/>
	</linearGradient>
	<path id="path2311" fill="url(#path2311_1_)" d="M477.9,303.7c0,0,9.4-9.7,11.2-21.4h-8.2C483.6,291.5,477.9,303.7,477.9,303.7z"/>
	
		<linearGradient id="path2320_1_" gradientUnits="userSpaceOnUse" x1="79.7669" y1="458.9156" x2="81.7482" y2="461.6612" gradientTransform="matrix(-5.3333 0 0 -5.3333 908.6405 2745.8438)">
		<stop  offset="5.600000e-03" style="stop-color:#67676F"/>
		<stop  offset="0.5" style="stop-color:#BBBCB8"/>
		<stop  offset="1" style="stop-color:#959796"/>
	</linearGradient>
	<path id="path2320" fill="url(#path2320_1_)" d="M480.8,282.2H474c7.6,4.1,3.9,21.4,3.9,21.4S483.6,291.5,480.8,282.2z"/>
	<path id="path2322" fill="#060506" d="M513.1,279.7c0,0.7-0.6,1.2-1.3,1.2H511V276c0-0.3-0.3-0.6-0.6-0.6h-10v5.5h-2.2v-6.7h13.1
		c1,0,1.8,0.8,1.8,1.7L513.1,279.7L513.1,279.7z M444.8,279.7H457c0.3,0,0.6-0.3,0.6-0.5v-1h-12.8v-2.2c0-1,0.9-1.7,1.8-1.7h13.1
		v1.2h-12.3c-0.3,0-0.5,0.3-0.5,0.5v1h12.8v2.2c0,1-0.8,1.7-1.8,1.7h-11.8C445.3,280.9,444.8,280.4,444.8,279.7L444.8,279.7
		L444.8,279.7z M463.5,279.1c0,0.3,0.3,0.6,0.6,0.6h12.1v1.2h-13.1c-1,0-1.8-0.8-1.8-1.7V276c0-1,0.9-1.7,1.8-1.7h13.1v1.2h-12.1
		c-0.3,0-0.6,0.3-0.6,0.6V279.1L463.5,279.1z M480,274.2v6.7h-2.2v-6.7H480L480,274.2z M496.6,275.9v3.2c0,1-0.9,1.7-1.8,1.7h-11.2
		c-1,0-1.8-0.8-1.8-1.7v-3.2c0-1,0.9-1.7,1.8-1.7h11.2C495.7,274.2,496.6,275,496.6,275.9L496.6,275.9L496.6,275.9z M493.8,275.4
		h-9.3c-0.3,0-0.6,0.3-0.6,0.6v3.2c0,0.3,0.3,0.6,0.6,0.6h9.3c0.3,0,0.6-0.3,0.6-0.6V276C494.4,275.7,494.2,275.4,493.8,275.4
		L493.8,275.4L493.8,275.4z"/>
</g>
</svg>
