<?xml version="1.0" encoding="utf-8"?>
<!-- Generator: Adobe Illustrator 18.0.0, SVG Export Plug-In . SVG Version: 6.00 Build 0)  -->
<!DOCTYPE svg PUBLIC "-//W3C//DTD SVG 1.1//EN" "http://www.w3.org/Graphics/SVG/1.1/DTD/svg11.dtd">
<svg version="1.1" id="Layer_1" xmlns="http://www.w3.org/2000/svg" xmlns:xlink="http://www.w3.org/1999/xlink" x="0px" y="0px"
	 viewBox="0 0 159 105" enable-background="new 0 0 159 105" xml:space="preserve">
<rect width="159" height="105"/>
<g>
	<path fill="#FFFFFF" d="M77.7,57.3l2.9-3.1c-2.6-2-6.1-3.5-10.5-4.7l-11.3-2.9c-5.3-1.5-8.1-3.4-8.1-7.5c0-4.4,3.9-7.8,12.9-7.8
		c6.5,0,14.1,2.1,18.2,4.6l2.6-8.2C80,25.4,72.1,23.1,64,23.1c-15.4,0-22.5,7.6-22.5,16.8c0,7.6,4.8,12.9,14.6,15.2l10.5,2.6
		c7.1,1.7,10.1,4,10.1,8.1c0,5.7-5.8,9-14.3,9c-7.6,0-14.6-2.9-18.5-5.4l-2.1,8.6c3.7,2.1,12.1,5.1,20.5,5.1
		c12.9,0,22.5-6.3,23.6-16L77.7,57.3z"/>
	<polygon fill="#FFFFFF" points="115.5,81.6 103.3,81.6 83.2,57.3 102.2,36.8 112.8,36.8 94.1,56.9 	"/>
</g>
</svg>
