<?xml version="1.0" encoding="utf-8"?>
<!-- Generator: Adobe Illustrator 18.0.0, SVG Export Plug-In . SVG Version: 6.00 Build 0)  -->
<!DOCTYPE svg PUBLIC "-//W3C//DTD SVG 1.1//EN" "http://www.w3.org/Graphics/SVG/1.1/DTD/svg11.dtd">
<svg version="1.1"
	 id="svg2" xmlns:rdf="http://www.w3.org/1999/02/22-rdf-syntax-ns#" xmlns:sodipodi="http://sodipodi.sourceforge.net/DTD/sodipodi-0.dtd" xmlns:svg="http://www.w3.org/2000/svg" xmlns:inkscape="http://www.inkscape.org/namespaces/inkscape" xmlns:dc="http://purl.org/dc/elements/1.1/" xmlns:cc="http://creativecommons.org/ns#" sodipodi:docname="GetFile.pdf" inkscape:version="0.48.2 r9819"
	 xmlns="http://www.w3.org/2000/svg" xmlns:xlink="http://www.w3.org/1999/xlink" x="0px" y="0px" viewBox="-211.8 -88.4 600 396.2"
	 enable-background="new -211.8 -88.4 600 396.2" xml:space="preserve">
<sodipodi:namedview  borderopacity="1" gridtolerance="10" objecttolerance="10" showgrid="false" guidetolerance="10" fit-margin-left="0" fit-margin-top="0" inkscape:cx="64.509769" inkscape:cy="-78.03852" inkscape:zoom="0.48224776" bordercolor="#666666" id="namedview4" pagecolor="#ffffff" inkscape:current-layer="g10" inkscape:window-maximized="0" inkscape:window-y="0" inkscape:window-x="0" fit-margin-bottom="0" fit-margin-right="0" inkscape:window-height="744" inkscape:window-width="1121" inkscape:pageshadow="2" inkscape:pageopacity="0">
	</sodipodi:namedview>
<g id="g10" transform="matrix(1.25,0,0,-1.25,-1429.2113,402.72843)" inkscape:label="GetFile" inkscape:groupmode="layer">
	<g id="g3261" transform="matrix(5.2996804,0,0,5.2996804,-4916.1212,-154.78849)">
		<path id="path52" inkscape:connector-curvature="0" fill="#54B948" d="M1111.4,43.5h90.6v59.8h-90.6V43.5z"/>
		<g id="g54">
			<g>
				<defs>
					<rect id="SVGID_1_" x="1003.5" y="-63.6" width="306.4" height="274"/>
				</defs>
				<clipPath id="SVGID_2_">
					<use xlink:href="#SVGID_1_"  overflow="visible"/>
				</clipPath>
				<g id="g56" clip-path="url(#SVGID_2_)">
					<g id="g62" transform="translate(1183.0096,47.6816)">
						<path id="path64" inkscape:connector-curvature="0" fill="#FFFFFF" d="M-17.6,10.7h-13.2v23.7h6.6V14.9h6.4
							c4.4,0,6.2,3,6.2,10.9c0,7.9-2.1,10.2-6.6,10.2h-14.5V10.7h-6.5V36h-9.6v4.2h32.7c7.9,0,11.6-4.1,11.6-14.3
							C-4.5,12.4-10,10.7-17.6,10.7"/>
					</g>
				</g>
			</g>
		</g>
	</g>
</g>
</svg>
