<?xml version="1.0" encoding="utf-8"?>
<!-- Generator: Adobe Illustrator 18.0.0, SVG Export Plug-In . SVG Version: 6.00 Build 0)  -->
<!DOCTYPE svg PUBLIC "-//W3C//DTD SVG 1.1//EN" "http://www.w3.org/Graphics/SVG/1.1/DTD/svg11.dtd">
<svg version="1.1" id="svg2" xmlns:svg="http://www.w3.org/2000/svg"
	 xmlns="http://www.w3.org/2000/svg" xmlns:xlink="http://www.w3.org/1999/xlink" x="0px" y="0px" viewBox="400.5 229 159 105"
	 enable-background="new 400.5 229 159 105" xml:space="preserve">
<rect x="400.5" y="229" fill="#ECECEC" width="159" height="105"/>
<g id="g2834" transform="matrix(1.6572019,0,0,1.6572019,-138.13155,-376.861)">
	<path id="path2843" d="M372.6,378.7c-11.2,0-20.4,5.8-20.4,12.9c0,7.1,9.2,12.9,20.4,12.9s20.4-5.8,20.4-12.9
		C393,384.5,383.8,378.7,372.6,378.7z M372.6,379.3c10.9,0,19.8,5.5,19.8,12.4c0,6.8-8.9,12.4-19.8,12.4c-10.9,0-19.8-5.5-19.8-12.4
		C352.7,384.9,361.6,379.3,372.6,379.3z M371.6,381l-1,0.1c-4.8,0.3-8.2,1.6-8.9,3.3c-0.1,0.1-0.1,0.4-0.1,0.5
		c0,0.3,0.1,0.6,0.2,0.8c0.7,1.1,2.7,2.1,5.7,2.6l0.3,0.1l0.1-0.3c0.5-3,1.5-5.3,2.9-6.4L371.6,381z M373.5,381l0.7,0.6
		c1.4,1.1,2.4,3.4,2.9,6.4l0.1,0.3l0.3-0.1c2.9-0.5,5-1.4,5.7-2.6c0.3-0.4,0.3-0.9,0.1-1.4c-0.6-1.7-4-3-8.9-3.3L373.5,381z
		 M369.8,381.8c-1.1,1.3-2,3.3-2.4,5.9c-2.6-0.4-4.4-1.3-4.9-2.2c-0.1-0.1-0.1-0.4-0.1-0.5c0-0.1,0-0.2,0.1-0.3
		C362.8,383.3,365.9,382.1,369.8,381.8z M375.3,381.8c3.9,0.4,7,1.5,7.4,2.8c0.1,0.1,0.1,0.2,0.1,0.3c0,0.1-0.1,0.4-0.1,0.5
		c-0.5,1-2.4,1.8-4.9,2.2C377.3,385.1,376.5,383,375.3,381.8z M372.6,383.9c-1.2,0-2.4,1.6-2.8,4.3l-0.1,0.4h0.4
		c0.8,0.1,1.7,0.1,2.5,0.1c0.9,0,1.7,0,2.5-0.1h0.4l-0.1-0.4C374.9,385.6,373.8,383.9,372.6,383.9z M372.6,384.6
		c0.9,0,1.7,1.3,2.1,3.4c-0.7,0.1-1.4,0.1-2.1,0.1c-0.7,0-1.4,0-2.1-0.1C370.9,385.9,371.7,384.6,372.6,384.6z M359.1,385.3
		l-0.4,0.4c-2.1,1.9-3.3,4-3.3,6.3c0,5.4,6.5,9.9,15,10.6l1,0.1l-0.7-0.6c-1.9-1.6-3-5.5-3-10v-1.1l-0.3-0.1
		c-4.5-0.8-7.7-2.8-8.2-4.9L359.1,385.3z M386,385.3l-0.1,0.5c-0.4,2.2-3.7,4.1-8.2,4.9l-0.3,0.1v1.1c0,4.6-1.2,8.4-3,10l-0.7,0.6
		l1-0.1c8.5-0.7,15-5.2,15-10.6c0-2.3-1.1-4.5-3.3-6.3L386,385.3z M358.8,386.4c0.8,2.2,3.9,3.9,8.2,4.8c0,0.2,0,0.6,0,0.6
		c0,4.2,1,7.9,2.6,9.9c-7.8-0.8-13.6-5-13.6-9.8C356.1,389.9,357.1,388,358.8,386.4z M386.3,386.4c1.8,1.6,2.7,3.5,2.7,5.4
		c0,4.8-5.8,9-13.6,9.8c1.6-2,2.6-5.7,2.6-9.9c0,0,0-0.3,0-0.6C382.4,390.4,385.5,388.5,386.3,386.4z M369.5,390.9v0.4v0.1
		c0,4.2,1.3,7.4,3.1,7.4s3.1-3.2,3.1-7.4V391h-0.4c-0.9,0.1-1.8,0.1-2.7,0.1c-1,0-1.8-0.1-2.7-0.1L369.5,390.9z M370.1,391.6
		c0.8,0.1,1.6,0.1,2.4,0.1c0.8,0,1.6-0.1,2.4-0.1c-0.1,3.9-1.2,6.6-2.4,6.6S370.1,395.6,370.1,391.6z"/>
	
		<linearGradient id="path2875_1_" gradientUnits="userSpaceOnUse" x1="176.272" y1="244.1702" x2="176.2646" y2="246.0612" gradientTransform="matrix(27.62 0 0 -27.62 -4496.1802 7146.9458)">
		<stop  offset="0" style="stop-color:#EAEEED"/>
		<stop  offset="1" style="stop-color:#61696C"/>
	</linearGradient>
	<path id="path2875" fill="url(#path2875_1_)" d="M386.1,384.2c0,0.1,0.1,0.1,0.1,0.2c0.1,0.4,0.1,1-0.1,1.4
		c2.1,1.7,3.2,3.8,3.2,6.1c0,5.7-7.5,10.3-16.8,10.3c-9.3,0-16.8-4.6-16.8-10.3c0-2.3,1.2-4.4,3.2-6.1c-0.1-0.4-0.1-0.9-0.1-1.4
		c0-0.1,0.1-0.1,0.1-0.3c-2.8,2-4.5,4.6-4.5,7.5c0,6.3,8.1,11.4,18,11.4c9.9,0,18-5.1,18-11.4C390.6,388.8,388.9,386.2,386.1,384.2"
		/>
	<g id="g2597">
		<path id="path2831" fill="#FF0000" d="M372.9,411.8c0-2.2,1.8-4,4-4c2.1,0,3.9,1.8,4,4c-0.1,2.2-1.8,3.9-4,4
			C374.7,415.9,372.9,414.1,372.9,411.8z M376.9,414.4c1.2,0,2.2-1.1,2.2-2.5c0-1.4-1-2.5-2.2-2.5c-1.2,0-2.2,1.1-2.2,2.5
			C374.7,413.3,375.6,414.4,376.9,414.4"/>
		<path id="path2833" fill="#FF0000" d="M385.3,409.5v6.1h-1.7v-6.1h-2.4v-1.3h6.3v1.3H385.3"/>
		<path id="path2835" fill="#FF0000" d="M389.6,413.9L389.6,413.9l-0.6,1.7h-2l3.2-7.5h2.1l3,7.5h-2l-0.7-1.7H389.6z M391.1,412.7h1
			l-1-2.8l-1,2.8H391.1"/>
		<path id="path2837" fill="#FF0000" d="M354.7,409.5v6.1H353v-6.1h-2.3v-1.3h6.2v1.3H354.7"/>
		<path id="path2839" fill="#FF0000" d="M357.4,411.8c0-2.2,1.8-4,4-4c2.1,0,3.9,1.8,4,4c0,2.2-1.8,3.9-4,4
			C359.2,415.9,357.4,414.1,357.4,411.8z M361.4,414.4c1.2,0,2.2-1.1,2.2-2.5c0-1.4-1-2.5-2.2-2.5c-1.2,0-2.2,1.1-2.2,2.5
			C359.2,413.3,360.1,414.4,361.4,414.4"/>
		<path id="path2841" fill="#FF0000" d="M369.1,415.6h0.8v-2.8l2.9-4.6h-1.9l-1.9,3.2l-1.8-3.2h-2l2.9,4.6v2.8H369.1"/>
	</g>
	<path id="path2885" fill="#EBEEEC" d="M375.1,388.3c-0.8,0.1-1.6,0.1-2.5,0.1s-1.7,0-2.5-0.1l0,0l-0.5,0.4c1,0.1,2,0.1,3,0.1
		c1,0,2.1-0.1,3-0.1L375.1,388.3z M384.2,384.3c-0.7-2.1-5.8-3.6-11.7-3.6s-11,1.6-11.7,3.6c-0.5,1.9,2.4,3.5,7.1,4.2l-0.4-0.5
		c-3.8-0.7-6.1-2.1-5.6-3.6c0.7-1.8,5.2-3.1,10.5-3.1c5.2,0,9.8,1.3,10.5,3.1c0.5,1.5-1.8,2.9-5.6,3.6l-0.4,0.5
		C381.8,387.8,384.8,386.2,384.2,384.3"/>
	<path id="path2905" fill="#EBEEEC" d="M370.1,388.3c0.4-2.5,1.4-4,2.5-4c1.1,0,2.1,1.6,2.5,4l0,0l0.5,0.4c-0.4-3.3-1.6-5.4-3-5.4
		c-1.4,0-2.6,2.1-3,5.4L370.1,388.3L370.1,388.3"/>
	<path id="path2925" fill="#EBEEEC" d="M375.7,390.5l-0.4,0.7c0,0.1,0,0.1,0,0.1c0,4.1-1.2,7.2-2.7,7.2c-1.5,0-2.7-3.1-2.7-7.2
		c0-0.1,0-0.1,0-0.2l-0.4-0.7c0,0.3,0,0.6,0,1c0,4.6,1.4,8.1,3.2,8.1c1.8,0,3.2-3.5,3.2-8.1C375.7,391.2,375.7,390.9,375.7,390.5"/>
	
		<linearGradient id="path2945_1_" gradientUnits="userSpaceOnUse" x1="252.4889" y1="308.9767" x2="252.4889" y2="310.4506" gradientTransform="matrix(14.647 0 0 14.647 -3325.6516 -4144.9404)">
		<stop  offset="0" style="stop-color:#CAD3D0"/>
		<stop  offset="1" style="stop-color:#95A09C"/>
	</linearGradient>
	<path id="path2945" fill="url(#path2945_1_)" d="M372.3,380.7c-2.2,0.1-4,3.1-4.7,7.4l0.4,0.5l0,0
		C368.6,384.2,370.4,380.8,372.3,380.7L372.3,380.7z M372.8,380.7c2.1,0.2,3.7,3.5,4.3,7.9l0,0l0.4-0.5
		C376.7,383.7,374.9,380.8,372.8,380.7z"/>
	
		<linearGradient id="path2985_1_" gradientUnits="userSpaceOnUse" x1="252.4889" y1="309.6543" x2="252.4889" y2="311.9922" gradientTransform="matrix(14.647 0 0 14.647 -3325.6516 -4144.9404)">
		<stop  offset="0" style="stop-color:#B9BEBE"/>
		<stop  offset="1" style="stop-color:#586160"/>
	</linearGradient>
	<path id="path2985" fill="url(#path2985_1_)" d="M367.9,390.3l-0.5,0.6c0,0.3,0,0.6,0,0.9c0,6.5,2.2,11.1,5.1,11.2
		c-2.6-0.1-4.6-5.1-4.6-11.2C367.9,391.3,367.9,390.9,367.9,390.3L367.9,390.3z M377.3,390.3c0,0.5,0.1,1,0.1,1.5
		c0,6.1-2.1,11-4.6,11.2c2.9-0.1,5.1-4.8,5.1-11.2c0-0.3,0-0.6,0-0.9L377.3,390.3L377.3,390.3z"/>
	
		<linearGradient id="path3029_1_" gradientUnits="userSpaceOnUse" x1="252.4889" y1="308.8857" x2="252.4889" y2="313.5728" gradientTransform="matrix(14.647 0 0 14.647 -3325.6516 -4144.9404)">
		<stop  offset="0" style="stop-color:#EAEEED"/>
		<stop  offset="0.5" style="stop-color:#D2DDD7"/>
		<stop  offset="1" style="stop-color:#5B6463"/>
	</linearGradient>
	<path id="path3029" fill="url(#path3029_1_)" d="M372.6,379c-11.1,0-20.1,5.7-20.1,12.7s9,12.7,20.1,12.7s20.1-5.7,20.1-12.7
		C392.7,384.7,383.7,379,372.6,379z M372.6,380.7c5.9,0,11,1.6,11.7,3.6c0.5,1.9-2.4,3.5-7.2,4.2C376.5,384,374.7,380.7,372.6,380.7
		z M372.6,380.7c-2.1,0-3.9,3.3-4.5,7.9c-4.7-0.7-7.7-2.4-7.2-4.2C361.5,382.2,366.7,380.7,372.6,380.7z M372.6,383.3
		c1.4,0,2.6,2.1,3,5.4c-1,0.1-2,0.1-3,0.1c-1,0-2.1-0.1-3-0.1C370,385.4,371.2,383.3,372.6,383.3z M359,384.1
		c-0.1,0.1-0.1,0.1-0.1,0.2c-0.7,2.7,3.1,5.1,8.9,6c0,0.5-0.1,1-0.1,1.5c0,6.2,2.1,11.2,4.7,11.2c2.6,0,4.7-5,4.7-11.2
		c0-0.5,0-1-0.1-1.5c5.8-0.9,9.6-3.3,8.9-6c0-0.1-0.1-0.1-0.1-0.2c2.8,2,4.5,4.6,4.5,7.5c0,6.3-8.1,11.4-18,11.4
		c-9.9,0-18-5.1-18-11.4C354.6,388.8,356.2,386.1,359,384.1z M369.4,390.5c1,0.1,2.1,0.1,3.2,0.1c1.1,0,2.1-0.1,3.2-0.1
		c0,0.3,0,0.6,0,1c0,4.6-1.4,8.1-3.2,8.1c-1.8,0-3.2-3.5-3.2-8.1C369.4,391.2,369.4,390.9,369.4,390.5z"/>
	<path id="path3089" fill="#C3CECB" d="M369.4,390.5L369.4,390.5l0.4,0.7c0.9,0.1,1.8,0.1,2.7,0.1s1.8-0.1,2.7-0.1l0.4-0.7l0,0
		c-1,0.1-2.1,0.1-3.2,0.1C371.5,390.6,370.4,390.6,369.4,390.5z M386.2,385c-0.1,2.4-3.7,4.5-9,5.2l0,0l0.5,0.6
		C382.9,390,386.4,387.7,386.2,385z M358.9,385c-0.1,2.6,3.3,4.9,8.5,5.9l0.5-0.6l0,0C362.6,389.5,359,387.4,358.9,385"/>
</g>
</svg>
