<?xml version="1.0" encoding="utf-8"?>
<!-- Generator: Adobe Illustrator 18.0.0, SVG Export Plug-In . SVG Version: 6.00 Build 0)  -->
<!DOCTYPE svg PUBLIC "-//W3C//DTD SVG 1.1//EN" "http://www.w3.org/Graphics/SVG/1.1/DTD/svg11.dtd">
<svg version="1.1" id="Layer_1" xmlns:sketch="http://www.bohemiancoding.com/sketch/ns"
	 xmlns="http://www.w3.org/2000/svg" xmlns:xlink="http://www.w3.org/1999/xlink" x="0px" y="0px" viewBox="779.7 444.6 159 105"
	 enable-background="new 779.7 444.6 159 105" xml:space="preserve">
<rect x="779.7" y="444.6" width="159" height="105"/>
<g id="_x31_---Designs" sketch:type="MSPage">
	<g id="_x31_.0---Home-Screen-Template---Homesense" transform="translate(-40.000000, -98.000000)" sketch:type="MSArtboardGroup">
		<g id="Nav_x2F_Homesense" transform="translate(0.000000, -1.000000)" sketch:type="MSLayerGroup">
			<g id="brands-_x2B_-French" transform="translate(0.000000, 79.000000)" sketch:type="MSShapeGroup">
				<g id="brands" transform="translate(0.000000, 0.000000)">
					<g id="nav-brands" transform="translate(40.000000, 16.000000)">
						<path id="logo-winners-copy-2" fill="#FFFFFF" d="M820.9,495l-4.8,12.4h-2.2l-4.5-10.8l-4.5,10.8h-2.2l-4.8-12.4h2.1l4,10.9
							l4.7-10.9h1.8l4.7,10.9l4-10.9C819.1,495,820.9,495,820.9,495z M825.7,494.9h1.8v12.5h-1.8V494.9z M835.4,494.9l8.4,8.9
							c0.5,0.7,0.7,0.8,1.4,1.5c-0.1-0.8-0.1-1-0.1-1.9v-8.6h1.7v12.5H845l-8.9-9.3c-0.5-0.5-0.5-0.7-0.9-1.2
							c0.1,0.8,0.1,1.2,0.1,2.2v8.4h-1.7v-12.5H835.4z M854.5,494.9l8.4,8.9c0.5,0.7,0.7,0.8,1.4,1.5c-0.1-0.8-0.1-1-0.1-1.9v-8.6
							h1.7v12.5h-1.7l-8.9-9.3c-0.5-0.5-0.5-0.7-0.9-1.2c0.1,0.8,0.1,1.2,0.1,2.2v8.4h-1.7v-12.5H854.5z M871.8,494.9h11.5v1.6h-9.7
							v3.8h9.5v1.5h-9.5v4.2h10.2v1.6h-12L871.8,494.9L871.8,494.9z M891.2,496.5v4.5h6.2c0.9,0,2.2,0,2.8-0.9
							c0.3-0.4,0.4-0.8,0.4-1.3s-0.1-0.9-0.4-1.3c-0.5-0.8-1.5-0.8-2.3-0.8L891.2,496.5L891.2,496.5z M889.5,494.9h8.5
							c1,0,2.4,0,3.6,0.9c0.4,0.3,1.2,1.2,1.2,2.6c0,2.9-2.6,3.4-3.3,3.6l4.6,5.3h-2.4l-4.2-5h-6v5h-1.8L889.5,494.9L889.5,494.9z
							 M908.7,504.2c0.2,0.2,0.4,0.5,0.8,0.8c1.4,0.9,3,1.2,4.7,1.2c2.7,0,4.3-0.9,4.3-2.5c0-1.8-2-1.9-4.5-2.2
							c-3.1-0.3-4.2-0.3-5.1-1.2c-0.7-0.7-0.8-1.5-0.8-2.1c0-3.6,4.7-3.7,5.8-3.7c1.7,0,3.6,0.3,4.9,1.3c0.5,0.4,0.9,0.8,1.3,1.3
							l-1.6,0.6c-0.3-0.3-0.4-0.5-0.7-0.7c-1.2-0.8-2.5-1-3.8-1c-1,0-2.3,0.2-3,0.5c-0.8,0.4-1.2,1-1.2,1.6c0,0.4,0.2,0.7,0.4,0.9
							c0.4,0.5,1,0.6,2.3,0.7c1.2,0.1,2.3,0.2,3.5,0.3c0.5,0,1,0.1,1.6,0.3c1.4,0.3,2.8,1.2,2.8,3.2c0,0.5-0.1,1.3-0.6,2.1
							c-0.9,1.4-2.8,2-5.4,2c-1,0-2.4-0.2-3.2-0.4c-2.6-0.7-3.5-2-3.8-2.4L908.7,504.2z"/>
					</g>
				</g>
			</g>
		</g>
	</g>
</g>
</svg>
