<?xml version="1.0" encoding="utf-8"?>
<!-- Generator: Adobe Illustrator 18.0.0, SVG Export Plug-In . SVG Version: 6.00 Build 0)  -->
<!DOCTYPE svg PUBLIC "-//W3C//DTD SVG 1.1//EN" "http://www.w3.org/Graphics/SVG/1.1/DTD/svg11.dtd">
<svg version="1.1"
	 id="Layer_1" xmlns:rdf="http://www.w3.org/1999/02/22-rdf-syntax-ns#" xmlns:cc="http://creativecommons.org/ns#" xmlns:sodipodi="http://sodipodi.sourceforge.net/DTD/sodipodi-0.dtd" xmlns:svg="http://www.w3.org/2000/svg" xmlns:inkscape="http://www.inkscape.org/namespaces/inkscape" xmlns:dc="http://purl.org/dc/elements/1.1/"
	 xmlns="http://www.w3.org/2000/svg" xmlns:xlink="http://www.w3.org/1999/xlink" x="0px" y="0px" viewBox="223.5 122.5 159 105"
	 enable-background="new 223.5 122.5 159 105" xml:space="preserve">
<rect x="223.5" y="122.5" fill="#EEEEEE" stroke="#474D4B" stroke-width="0.25" stroke-miterlimit="10" width="159" height="105"/>
<path id="path3" inkscape:connector-curvature="0" fill="#AAB3B7" stroke="#474D4B" stroke-width="0.25" stroke-miterlimit="10" d="
	M369.5,176.3h-10.3c0.1-1.3,1-2.6,2.7-2.6H374v-2.5h-12.8c-5.1,0-7.2,3.9-7.2,7.6h14.2c0.5,0,1.6,0.1,1.6,1.3c0,1.2-1,1.3-2.7,1.3
	h-14.8v-10.2h-4.4v10.2h-8.3c-2.5,0-2.8-1.9-2.8-2.8v-7.3h-8l-6.5,4.3l-5.8-4.3h-17c-5.1,0-8.1,3.5-8.6,6.6h3.5
	c-1.4,0.9-2.4,2.2-2.9,3.6l-9.9,0c-2.5,0-2.8-1.9-2.8-2.8v-7.3h-4.4v6.9c0,4.8,3.4,5.7,5,5.7h34.9l6.5-4.4l5.9,4.4h6.9l-9.2-6.8
	l7.5-5.1v6.7c0,4.3,4.2,5.1,5.4,5.1h31.9c1.6,0,5.9-0.2,5.9-3.7C375.3,176.8,372.1,176.3,369.5,176.3 M313.7,181.4h-16.4
	c0.1-1.3,1.5-2.6,3.2-2.6h9.7v-2.5h-13.3c0.1-1.3,1.6-2.6,3.2-2.6h11.1v-1.4l7.7,5.7L313.7,181.4z"/>
<path id="path13" inkscape:connector-curvature="0" fill="#A5ADB2" stroke="#474D4B" stroke-width="0.25" stroke-miterlimit="10" d="
	M251.6,189.5c5.7,0,10.8-2,14-5.1l-2.8,0c-2.7,2.3-6.6,3.7-11.1,3.7c-8.3,0-14.8-5-14.8-11.1c0-7,6.5-11.1,14.8-11.1
	c0.5,0,1,0.2,0.6,0.7c-1.7,2.1-6.6,8.8-7.5,10.2c-1.8,2.9-1.7,6.4,2.6,6.6h18.2c0.9,0,1.2-0.4,1.5-0.9c1.2-1.6,1.8-3.6,1.8-5.6
	c0-5.2-3.7-9.2-9.1-11.1l-0.8,1.3c4.5,1.7,7.5,5,7.5,9.9c0,0.8-0.1,1.7-0.4,2.4c-0.2,0.7-0.6,1.3-1.3,1.3h-14.5
	c-1.9,0-1.1-1.9-0.5-2.9c1-1.8,6.5-9.3,7.8-10.7c0.3-0.5,1.3-1.6,0-2c-1.9-0.4-3.9-0.7-5.9-0.7c-9.6,0-17.3,4.9-17.3,12.5
	C234.3,184.6,242.1,189.5,251.6,189.5"/>
</svg>
