<?xml version="1.0" encoding="utf-8"?>
<!-- Generator: Adobe Illustrator 18.0.0, SVG Export Plug-In . SVG Version: 6.00 Build 0)  -->
<!DOCTYPE svg PUBLIC "-//W3C//DTD SVG 1.1//EN" "http://www.w3.org/Graphics/SVG/1.1/DTD/svg11.dtd">
<svg version="1.1" id="Capa_1" xmlns="http://www.w3.org/2000/svg" xmlns:xlink="http://www.w3.org/1999/xlink" x="0px" y="0px"
	 viewBox="240 240 32 32" enable-background="new 240 240 32 32" xml:space="preserve">
<g>
	<g>
		<path fill="#E04B37" d="M260.7,240h-7.6c-3.4,0-5.8,0.7-7.9,2.5c-1.7,1.4-2.7,3.5-2.7,5.6c0,3.2,2.4,6.6,6.9,6.6
			c0.4,0,0.9,0,1.3-0.1l-0.1,0.2c-0.2,0.4-0.4,0.8-0.4,1.5c0,1.2,0.6,2,1.2,2.7l0.1,0.1l-0.1,0c-1.9,0.1-5.3,0.4-7.8,1.9
			c-3,1.8-3.2,4.3-3.2,5.1c0,3,2.8,6,9,6c7.2,0,11-4,11-7.9c0-2.9-1.7-4.3-3.5-5.8l-1.5-1.2c-0.5-0.4-1.1-0.9-1.1-1.8
			c0-0.9,0.6-1.5,1.1-2l0.1-0.1c1.6-1.3,3.5-2.8,3.5-5.9c0-3.2-2-4.8-3-5.6h2.5c0,0,0.1,0,0.1,0l2.2-1.4c0.1,0,0.1-0.1,0.1-0.2
			C260.8,240,260.8,240,260.7,240z M251.4,270.2c-4.4,0-7.3-2-7.3-5.1c0-2,1.2-3.4,3.6-4.3c1.9-0.6,4.4-0.7,4.4-0.7c0.4,0,0.6,0,1,0
			c3.1,2.2,4.5,3.3,4.5,5.5C257.6,268.5,255.2,270.2,251.4,270.2z M251.4,253.5c-3.7,0-5.2-4.8-5.2-7.4c0-1.3,0.3-2.3,0.9-3.1
			c0.7-0.8,1.8-1.4,2.9-1.4c3.4,0,5.2,4.5,5.2,7.7c0,0.5,0,2-1,3C253.5,253,252.4,253.5,251.4,253.5z"/>
		<path fill="#E04B37" d="M271.4,254.9h-4v-4c0-0.1-0.1-0.2-0.2-0.2h-1.7c-0.1,0-0.2,0.1-0.2,0.2v4h-4c-0.1,0-0.2,0.1-0.2,0.2v1.8
			c0,0.1,0.1,0.2,0.2,0.2h4v4c0,0.1,0.1,0.2,0.2,0.2h1.7c0.1,0,0.2-0.1,0.2-0.2v-4h4c0.1,0,0.2-0.1,0.2-0.2v-1.8
			C271.6,255,271.5,254.9,271.4,254.9z"/>
	</g>
</g>
</svg>
