<?xml version="1.0" encoding="utf-8"?>
<!-- Generator: Adobe Illustrator 18.0.0, SVG Export Plug-In . SVG Version: 6.00 Build 0)  -->
<!DOCTYPE svg PUBLIC "-//W3C//DTD SVG 1.1//EN" "http://www.w3.org/Graphics/SVG/1.1/DTD/svg11.dtd">
<svg version="1.1" id="Capa_1" xmlns="http://www.w3.org/2000/svg" xmlns:xlink="http://www.w3.org/1999/xlink" x="0px" y="0px"
	 viewBox="240 240 32 32" enable-background="new 240 240 32 32" xml:space="preserve">
<g>
	<path fill="#305D86" d="M244.1,240h23.8c2.3,0,4.1,1.7,4.1,4.1v23.8c0,2.4-1.8,4.1-4.1,4.1h-23.8c-2.3,0-4.1-1.7-4.1-4.1v-23.8
		C240,241.7,241.8,240,244.1,240L244.1,240z M263.3,243.6c-0.8,0-1.4,0.6-1.4,1.4v3.4c0,0.8,0.6,1.4,1.4,1.4h3.6
		c0.8,0,1.4-0.6,1.4-1.4V245c0-0.8-0.6-1.4-1.4-1.4H263.3L263.3,243.6z M268.4,253.5h-2.8c0.3,0.9,0.4,1.8,0.4,2.7
		c0,5.3-4.5,9.6-9.9,9.6c-5.5,0-9.9-4.3-9.9-9.6c0-1,0.1-1.9,0.4-2.7h-2.9V267c0,0.7,0.6,1.3,1.3,1.3h22.3c0.7,0,1.3-0.6,1.3-1.3
		L268.4,253.5L268.4,253.5z M256,249.7c-3.5,0-6.4,2.8-6.4,6.2c0,3.4,2.9,6.2,6.4,6.2c3.5,0,6.4-2.8,6.4-6.2
		C262.5,252.5,259.6,249.7,256,249.7z"/>
</g>
</svg>
