<?xml version="1.0" encoding="utf-8"?>
<!-- Generator: Adobe Illustrator 18.0.0, SVG Export Plug-In . SVG Version: 6.00 Build 0)  -->
<!DOCTYPE svg PUBLIC "-//W3C//DTD SVG 1.1//EN" "http://www.w3.org/Graphics/SVG/1.1/DTD/svg11.dtd">
<svg version="1.1" id="Capa_1" xmlns="http://www.w3.org/2000/svg" xmlns:xlink="http://www.w3.org/1999/xlink" x="0px" y="0px"
	 viewBox="240 240 32 32" enable-background="new 240 240 32 32" xml:space="preserve">
<g>
	<path id="LinkedIn" fill="#0C78BA" d="M272,259.6V272h-6.9v-11.6c0-2.9-1-4.9-3.5-4.9c-1.9,0-3,1.3-3.5,2.6
		c-0.2,0.5-0.2,1.1-0.2,1.8V272h-6.9c0,0,0.1-19.6,0-21.6h6.9v3.1c0,0,0,0,0,0.1h0v-0.1c0.9-1.5,2.5-3.6,6.2-3.6
		C268.6,249.9,272,253,272,259.6z M243.9,240c-2.3,0-3.9,1.6-3.9,3.7c0,2.1,1.5,3.7,3.8,3.7h0c2.4,0,3.9-1.7,3.9-3.7
		C247.7,241.6,246.2,240,243.9,240z M240.4,272h6.9v-21.6h-6.9V272z"/>
</g>
</svg>
