<?xml version="1.0" encoding="utf-8"?>
<!-- Generator: Adobe Illustrator 18.0.0, SVG Export Plug-In . SVG Version: 6.00 Build 0)  -->
<!DOCTYPE svg PUBLIC "-//W3C//DTD SVG 1.1//EN" "http://www.w3.org/Graphics/SVG/1.1/DTD/svg11.dtd">
<svg version="1.1" id="Capa_1" xmlns="http://www.w3.org/2000/svg" xmlns:xlink="http://www.w3.org/1999/xlink" x="0px" y="0px"
	 viewBox="240 240 32 32" enable-background="new 240 240 32 32" xml:space="preserve">
<g>
	<g>
		<path fill="#60A8DC" d="M272,243.8c-1.2,0.6-2.4,1.1-3.8,1.3c1.4-1,2.4-2.6,2.9-4.5c-1.3,0.9-2.7,1.6-4.2,2
			c-1.2-1.6-2.9-2.6-4.8-2.6c-3.6,0-6.6,3.6-6.6,8.1c0,0.6,0.1,1.3,0.2,1.8c-5.5-0.3-10.3-3.6-13.5-8.4c-0.6,1.2-0.9,2.6-0.9,4.1
			c0,2.8,1.2,5.3,2.9,6.7c-1.1,0-2.1-0.4-3-1v0.1c0,3.9,2.3,7.2,5.3,7.9c-0.5,0.2-1.1,0.3-1.7,0.3c-0.4,0-0.8-0.1-1.2-0.2
			c0.8,3.2,3.3,5.5,6.1,5.6c-2.2,2.2-5.1,3.5-8.2,3.5c-0.5,0-1.1,0-1.6-0.1c2.9,2.3,6.4,3.6,10.1,3.6c12.1,0,18.7-12.3,18.7-23l0-1
			C270,246.8,271.1,245.4,272,243.8z"/>
	</g>
</g>
</svg>
